<svg width="62" height="62" viewBox="0 0 62 62" fill="none" xmlns="http://www.w3.org/2000/svg">
<path d="M23.777 33.212C24.434 32.992 25.07 32.731 25.675 32.431L29.733 35.136L35.136 29.734L32.43 25.677C32.731 25.071 32.992 24.435 33.211 23.778L38 22.82V15.18L33.212 14.222C32.926 13.365 32.568 12.545 32.147 11.779L30.395 12.743C30.841 13.554 31.205 14.437 31.475 15.366L31.644 15.949L36 16.82V21.18L31.644 22.051L31.475 22.634C31.204 23.563 30.841 24.446 30.395 25.257L30.102 25.789L32.563 29.479L29.48 32.562L25.789 30.101L25.257 30.394C24.446 30.84 23.565 31.204 22.635 31.475L22.053 31.644L21.181 36H16.82L15.949 31.645L15.367 31.476C14.437 31.205 13.555 30.842 12.745 30.395L12.213 30.102L8.522 32.563L4.859 28.9L3.445 30.314L8.268 35.136L12.326 32.431C12.931 32.731 13.567 32.993 14.224 33.212L15.181 38H22.82L23.777 33.212Z" fill="#32E3A0"/>
<path d="M5.854 26.221L7.606 25.257C7.16 24.446 6.796 23.563 6.526 22.634L6.357 22.051L2 21.18V16.82L6.356 15.949L6.525 15.366C6.796 14.437 7.159 13.554 7.605 12.743L7.898 12.211L5.437 8.521L8.52 5.438L12.211 7.899L12.743 7.606C13.554 7.16 14.435 6.796 15.365 6.525L15.947 6.356L16.819 2H21.18L22.051 6.355L22.633 6.524C23.563 6.795 24.445 7.158 25.255 7.605L25.787 7.898L29.478 5.437L33.141 9.1L34.555 7.686L29.732 2.864L25.674 5.569C25.069 5.269 24.433 5.007 23.776 4.788L22.819 0H15.18L14.222 4.788C13.565 5.008 12.929 5.269 12.324 5.569L8.267 2.864L2.863 8.266L5.569 12.323C5.268 12.929 5.007 13.565 4.788 14.222L0 15.18V22.82L4.788 23.778C5.074 24.635 5.432 25.454 5.854 26.221Z" fill="#32E3A0"/>
<path d="M30 19C30 12.935 25.065 8 19 8V10C23.963 10 28 14.038 28 19H30Z" fill="#32E3A0"/>
<path d="M10 19H8C8 25.065 12.935 30 19 30V28C14.037 28 10 23.962 10 19Z" fill="#32E3A0"/>
<path d="M26 19C26 15.14 22.859 12 19 12C15.141 12 12 15.14 12 19C12 22.86 15.141 26 19 26C22.859 26 26 22.86 26 19ZM14 19C14 16.243 16.243 14 19 14C21.757 14 24 16.243 24 19C24 21.757 21.757 24 19 24C16.243 24 14 21.757 14 19Z" fill="#32E3A0"/>
<path d="M38.688 45.061L36.952 46.052C37.273 46.616 37.527 47.23 37.706 47.877L37.876 48.492L40 48.847V51.153L37.876 51.507L37.706 52.122C37.527 52.769 37.273 53.383 36.952 53.947L36.635 54.503L37.887 56.255L36.256 57.885L34.504 56.634L33.948 56.951C33.383 57.273 32.768 57.527 32.123 57.704L31.508 57.874L31.153 60H28.846L28.492 57.875L27.877 57.705C27.231 57.528 26.617 57.274 26.052 56.952L25.496 56.635L23.744 57.886L21.515 55.657L20.101 57.071L23.528 60.499L25.637 58.993C25.99 59.163 26.353 59.313 26.727 59.442L27.153 62H32.846L33.273 59.441C33.647 59.312 34.01 59.162 34.363 58.992L36.472 60.498L40.497 56.471L38.991 54.363C39.161 54.011 39.311 53.647 39.44 53.274L42 52.847V47.153L39.441 46.726C39.24 46.144 38.988 45.586 38.688 45.061Z" fill="#32E3A0"/>
<path d="M21.312 54.939L23.048 53.948C22.727 53.384 22.473 52.77 22.294 52.123L22.124 51.508L20 51.153V48.847L22.124 48.493L22.294 47.878C22.473 47.231 22.727 46.617 23.048 46.053L23.365 45.497L22.113 43.745L23.744 42.115L25.496 43.366L26.052 43.049C26.617 42.727 27.232 42.473 27.877 42.296L28.492 42.126L28.847 40H31.154L31.508 42.125L32.123 42.295C32.769 42.472 33.383 42.726 33.948 43.048L34.504 43.365L36.256 42.114L38.485 44.343L39.899 42.929L36.472 39.501L34.363 41.007C34.01 40.837 33.647 40.687 33.273 40.558L32.847 38H27.154L26.727 40.559C26.353 40.688 25.99 40.838 25.637 41.008L23.528 39.502L19.503 43.529L21.009 45.637C20.839 45.989 20.689 46.353 20.56 46.726L18 47.153V52.847L20.559 53.274C20.76 53.856 21.012 54.414 21.312 54.939Z" fill="#32E3A0"/>
<path d="M30 45C27.243 45 25 47.243 25 50C25 52.757 27.243 55 30 55C32.757 55 35 52.757 35 50C35 47.243 32.757 45 30 45ZM30 53C28.346 53 27 51.654 27 50C27 48.346 28.346 47 30 47C31.654 47 33 48.346 33 50C33 51.654 31.654 53 30 53Z" fill="#32E3A0"/>
<path d="M62 31.847V26.153L59.441 25.726C59.24 25.144 58.988 24.586 58.688 24.061L56.952 25.052C57.273 25.616 57.527 26.23 57.706 26.877L57.876 27.492L60 27.847V30.153L57.876 30.507L57.706 31.122C57.527 31.769 57.273 32.383 56.952 32.947L56.635 33.503L57.887 35.255L56.256 36.885L54.504 35.634L53.948 35.951C53.383 36.273 52.768 36.527 52.123 36.704L51.508 36.874L51.153 39H48.846L48.492 36.875L47.877 36.705C47.231 36.528 46.617 36.274 46.052 35.952L45.496 35.635L43.744 36.886L41.515 34.657L40.101 36.071L43.528 39.499L45.637 37.993C45.99 38.163 46.353 38.313 46.727 38.442L47.153 41H52.846L53.273 38.441C53.647 38.312 54.01 38.162 54.363 37.992L56.472 39.498L60.497 35.471L58.991 33.363C59.161 33.011 59.311 32.647 59.44 32.274L62 31.847Z" fill="#32E3A0"/>
<path d="M40.559 25.726L38 26.153V31.847L40.559 32.274C40.76 32.856 41.012 33.414 41.312 33.939L43.048 32.948C42.727 32.384 42.473 31.77 42.294 31.123L42.124 30.508L40 30.153V27.847L42.124 27.493L42.294 26.878C42.473 26.231 42.727 25.617 43.048 25.053L43.365 24.497L42.113 22.745L43.744 21.115L45.496 22.366L46.052 22.049C46.617 21.727 47.232 21.473 47.877 21.296L48.492 21.126L48.847 19H51.154L51.508 21.125L52.123 21.295C52.769 21.472 53.383 21.726 53.948 22.048L54.504 22.365L56.256 21.114L58.485 23.343L59.899 21.929L56.472 18.501L54.363 20.007C54.01 19.837 53.647 19.687 53.273 19.558L52.847 17H47.154L46.727 19.559C46.353 19.688 45.99 19.838 45.637 20.008L43.528 18.502L39.503 22.529L41.009 24.637C40.838 24.988 40.688 25.353 40.559 25.726Z" fill="#32E3A0"/>
<path d="M50 24C47.243 24 45 26.243 45 29C45 31.757 47.243 34 50 34C52.757 34 55 31.757 55 29C55 26.243 52.757 24 50 24ZM50 32C48.346 32 47 30.654 47 29C47 27.346 48.346 26 50 26C51.654 26 53 27.346 53 29C53 30.654 51.654 32 50 32Z" fill="#32E3A0"/>
</svg>
