<svg width="238" height="201" viewBox="0 0 238 201" fill="none" xmlns="http://www.w3.org/2000/svg">
<path d="M28.1917 5.89717L1.39925 63.8917C-0.766551 68.5857 1.28218 74.1438 5.97058 76.3096C10.6618 78.4726 16.2171 76.4294 18.3884 71.7382L18.3856 71.7382L36.2556 33.0659C49.7689 86.4306 72.1824 123.316 97.2857 148.4C126.776 177.899 159.645 190.899 184.991 196.438C210.373 201.985 228.357 200.206 229.049 200.145C234.189 199.624 237.935 195.033 237.416 189.893C237.191 187.66 236.196 185.693 234.727 184.224C232.809 182.306 230.072 181.233 227.164 181.528L227.162 181.528C227.162 181.528 227.162 181.528 227.1 181.531C225.765 181.654 209.255 182.911 186.845 177.673C164.406 172.422 136.175 160.815 110.52 135.165C87.9284 112.554 67.1093 78.8795 54.2873 28.0458L92.4467 45.2942C97.1546 47.4238 102.699 45.3332 104.826 40.6225C106.473 36.971 105.587 32.8206 102.913 30.1475C102.139 29.3726 101.21 28.7204 100.151 28.2381L40.5343 1.29518C35.8542 -0.81767 30.3436 1.23664 28.1917 5.89717Z" fill="#32E3A0"/>
</svg>
