<svg width="200" height="237" viewBox="0 0 200 237" fill="none" xmlns="http://www.w3.org/2000/svg">
<path d="M5.43287 209.273L63.4274 236.065C68.1214 238.231 73.6795 236.182 75.8453 231.494C78.0083 226.803 75.9651 221.247 71.2739 219.076L71.2739 219.079L32.6016 201.209C85.9663 187.695 122.852 165.282 147.936 140.179C177.435 110.688 190.435 77.819 195.974 52.4732C201.521 27.0912 199.742 9.10694 199.681 8.41567C199.16 3.27571 194.569 -0.470546 189.429 0.0479095C187.196 0.273688 185.228 1.2688 183.759 2.73776C181.842 4.65548 180.768 7.3927 181.064 10.3L181.064 10.3027C181.064 10.3027 181.064 10.3027 181.067 10.3641C181.189 11.6992 182.446 28.209 177.209 50.6196C171.957 73.0582 160.351 101.289 134.701 126.944C112.09 149.536 78.4152 170.355 27.5815 183.177L44.8299 145.018C46.9595 140.31 44.8689 134.766 40.1582 132.639C36.5068 130.991 32.3563 131.878 29.6832 134.551C28.9083 135.326 28.2561 136.254 27.7738 137.313L0.830877 196.93C-1.28197 201.61 0.772343 207.121 5.43287 209.273Z" fill="#32E3A0"/>
</svg>
